# xmcd
#
# Track frame offsets:
#	150
#	14689
#	37451
#	57427
#	73457
#	89131
#	107435
#	126181
#	157848
#	172959
#	240377
#
# Disc length: 3752 seconds
#
# Revision: 0
# Processed by: cddbd v1.5.1PL0 Copyright (c) Steve Scherf et al.
# Submitted via: dBpowerAMP V4.0
#
DISCID=9b0ea60b
DTITLE=Gregg Allman Band - Live at Red Rocks
DYEAR=1987
DGENRE=Blues
TTITLE0=Don't Want You No More
TTITLE1=It's Not My Cross to Bear
TTITLE2=Old Time Feeling
TTITLE3=Faces Without Names
TTITLE4=Trouble No More
TTITLE5=Anything Goes
TTITLE6=I'm No Angel
TTITLE7=Stetesboro Blues
TTITLE8=Please Call Home
TTITLE9=Whipping Post
TTITLE10=One Way Out
EXTD=Red Rocks Amphitheater on June 17th, 1987 (opening act for Stevie Ray Vaughan)
EXTT0=
EXTT1=
EXTT2=
EXTT3=
EXTT4=
EXTT5=
EXTT6=
EXTT7=
EXTT8=
EXTT9=
EXTT10=
PLAYORDER=
